
<svg width="116px" height="34px" viewBox="266 22 116 34" version="1.1" xmlns="http://www.w3.org/2000/svg" xmlns:xlink="http://www.w3.org/1999/xlink">
    <!-- Generator: Sketch 41.2 (35397) - http://www.bohemiancoding.com/sketch -->
    <desc>Created with Sketch.</desc>
    <defs></defs>
    <path d="M277.990471,37.615 L277.000471,37.615 C275.878471,37.615 274.954471,36.724 274.954471,35.602 C274.954471,34.48 275.878471,33.556 277.000471,33.556 L282.016471,33.556 C283.072471,33.556 284.062471,34.348 284.062471,35.569 C283.732471,40.057 281.983471,46.558 279.607471,50.65 C278.518471,52.564 276.208471,55.765 274.129471,55.765 C273.172471,55.765 272.149471,54.94 272.149471,53.752 C272.149471,53.059 272.512471,52.399 273.172471,51.97 C275.878471,50.254 277.429471,46.162 278.353471,43.159 C276.241471,45.139 273.073471,47.614 270.400471,47.614 C267.430471,47.614 266.374471,45.172 266.374471,42.763 C266.374471,37.582 270.103471,32.005 273.799471,28.045 C275.482471,26.263 279.013471,22.798 280.960471,22.798 C281.884471,22.798 282.973471,23.557 282.973471,24.844 C282.973471,26.296 281.125471,27.022 279.904471,27.913 C276.076471,30.685 270.433471,37.516 270.433471,42.73 C270.433471,43.027 270.466471,43.291 270.499471,43.555 C273.271471,42.928 276.538471,40.057 277.990471,37.615 Z M287.919588,45.271 C288.612588,45.271 290.427588,42.202 291.945588,42.202 C293.034588,42.202 294.024588,43.093 294.024588,44.248 C294.024588,45.733 290.328588,49.396 287.556588,49.396 C285.246588,49.396 283.860588,47.482 283.860588,45.403 C283.860588,42.235 285.510588,36.592 287.061588,33.853 C287.424588,33.16 288.249588,32.863 288.876588,32.863 C289.932588,32.863 290.889588,33.787 290.889588,34.909 C290.889588,35.074 290.856588,35.272 290.658588,35.701 C289.668588,38.077 287.919588,42.466 287.919588,45.271 Z M290.559588,31.378 C289.503588,31.378 288.513588,30.487 288.513588,29.332 C288.513588,29.167 288.546588,28.969 289.206588,26.956 C289.503588,26.032 290.229588,25.471 291.120588,25.471 C292.242588,25.471 293.199588,26.428 293.199588,27.517 C293.199588,27.682 293.166588,27.847 292.506588,29.893 C292.209588,30.817 291.450588,31.378 290.559588,31.378 Z M292.568706,42.565 C293.162706,38.044 293.987706,33.49 295.307706,29.134 C295.934706,27.055 297.221706,23.326 299.333706,23.326 C302.732706,23.326 303.854706,30.586 303.854706,32.995 C303.854706,34.579 303.425706,41.377 300.323706,41.377 C299.135706,41.377 298.343706,40.321 298.343706,39.331 C298.343706,39.001 298.409706,38.638 298.607706,38.308 C299.432706,36.724 299.828706,34.942 299.828706,33.16 C299.828706,32.005 299.663706,30.817 299.366706,29.662 C298.013706,32.995 297.089706,38.803 296.528706,43.192 C297.452706,42.961 298.409706,42.103 299.168706,42.103 C300.059706,42.103 300.917706,42.895 300.917706,43.852 C300.917706,45.568 297.716706,46.591 296.132706,46.789 C295.901706,48.868 295.736706,50.914 295.736706,53.026 C295.736706,54.379 294.713706,55.039 293.723706,55.039 C292.700706,55.039 291.710706,54.346 291.710706,52.696 C291.710706,50.584 291.908706,48.241 292.139706,46.195 C290.852706,45.667 290.060706,45.139 290.060706,44.149 C290.060706,43.258 290.753706,42.367 291.743706,42.367 C292.007706,42.367 292.271706,42.4 292.568706,42.565 Z M319.950941,43.522 C320.313941,41.047 321.204941,38.836 322.029941,36.526 C322.062941,36.328 322.062941,36.13 322.062941,35.965 C322.062941,34.777 321.105941,33.985 320.049941,33.985 C319.389941,33.985 318.762941,34.282 318.300941,34.975 C317.046941,36.922 315.825941,38.902 314.538941,40.816 C314.835941,39.001 315.297941,37.252 315.825941,35.47 C316.056941,34.711 316.089941,34.513 316.089941,34.315 C316.089941,33.127 315.000941,32.368 313.977941,32.368 C313.185941,32.368 312.426941,32.797 312.096941,33.82 C310.908941,37.582 310.182941,41.08 310.182941,44.545 C310.182941,46.426 310.182941,49.396 312.492941,49.396 C313.218941,49.396 313.812941,49 314.241941,48.373 L315.924941,45.997 C316.485941,47.515 317.772941,48.505 319.323941,48.505 C321.930941,48.505 324.108941,44.809 325.098941,42.763 C325.296941,42.367 325.362941,42.004 325.362941,41.674 C325.362941,40.486 324.306941,39.727 323.250941,39.727 C322.623941,39.727 321.963941,40.024 321.600941,40.717 C321.105941,41.674 320.610941,42.631 319.950941,43.522 Z M326.877059,25.108 L325.887059,32.401 C325.887059,32.467 325.854059,32.566 325.854059,32.632 C325.854059,33.523 326.547059,34.216 327.438059,34.216 C328.428059,34.216 329.385059,33.358 329.517059,32.401 L330.540059,25.108 C330.540059,25.042 330.573059,24.943 330.573059,24.877 C330.573059,23.986 329.880059,23.293 328.956059,23.293 C327.999059,23.293 327.042059,24.151 326.877059,25.108 Z M343.439176,29.794 L333.935176,26.791 C333.044176,26.494 332.417176,25.735 332.417176,24.877 C332.417176,23.689 333.440176,22.798 334.463176,22.798 C334.661176,22.798 334.859176,22.831 335.057176,22.897 L346.211176,26.461 C347.003176,26.692 347.696176,27.319 347.696176,28.375 C347.234176,32.995 344.792176,54.115 336.707176,54.115 C331.592176,54.115 330.602176,47.944 330.602176,44.182 C330.602176,43.093 331.526176,42.169 332.648176,42.169 C333.737176,42.169 334.661176,43.093 334.661176,44.182 C334.661176,45.106 334.694176,50.056 336.707176,50.056 C337.169176,50.056 337.763176,49.363 337.895176,49.165 C340.634176,45.337 343.043176,35.206 343.439176,29.794 Z M349.540294,45.37 C352.048294,44.38 353.302294,42.334 353.863294,40.585 C354.094294,39.892 355.018294,39.364 355.711294,39.364 C356.833294,39.364 357.724294,40.387 357.724294,41.41 C357.724294,42.268 356.833294,43.192 356.833294,44.479 C356.833294,44.644 356.833294,45.37 357.196294,45.37 C358.912294,45.37 359.638294,43.027 361.222294,43.027 C362.311294,43.027 363.301294,43.885 363.301294,45.073 C363.301294,46.129 362.278294,46.987 361.387294,47.713 C360.232294,48.604 358.780294,49.396 357.262294,49.396 C356.008294,49.396 354.259294,48.736 353.533294,47.35 C352.378294,48.439 350.959294,49.462 349.375294,49.462 C347.098294,49.462 345.481294,47.779 345.481294,45.403 C345.481294,41.674 349.738294,35.932 353.236294,33.688 C354.193294,33.061 355.282294,32.599 356.305294,32.599 C358.351294,32.599 359.737294,34.315 359.737294,36.328 C359.737294,37.714 358.978294,39.628 357.427294,39.628 C356.404294,39.628 355.381294,38.869 355.381294,37.681 C355.381294,37.186 355.612294,36.592 355.612294,36.592 C353.632294,37.417 349.540294,42.433 349.540294,45.37 Z M376.365412,42.664 C377.091412,41.674 377.982412,40.222 379.104412,40.222 C380.226412,40.222 381.183412,41.212 381.183412,42.235 C381.183412,43.324 379.434412,45.403 378.378412,46.558 C377.388412,47.647 375.771412,49.297 374.616412,49.297 C372.603412,49.297 372.504412,47.35 372.372412,44.578 C369.864412,47.878 369.237412,48.703 368.148412,48.703 C366.036412,48.703 365.904412,46.195 365.904412,44.347 L363.132412,48.373 C362.736412,48.967 362.175412,49.396 361.416412,49.396 C359.040412,49.396 359.040412,46.294 359.040412,44.677 C359.040412,40.849 360.360412,37.219 362.043412,33.886 C362.373412,33.226 363.132412,32.896 363.792412,32.896 C364.881412,32.896 365.838412,33.688 365.838412,34.975 C365.838412,35.14 365.838412,35.272 365.772412,35.47 C364.980412,37.054 364.353412,38.539 363.825412,40.222 L367.059412,35.47 C367.488412,34.876 368.148412,34.48 368.841412,34.48 C369.864412,34.48 370.821412,35.437 370.821412,36.46 C370.821412,36.658 370.821412,36.823 370.755412,37.021 C370.326412,38.209 370.161412,39.496 370.161412,40.717 C371.217412,39.298 372.075412,37.945 372.933412,36.427 C373.296412,35.8 373.956412,35.437 374.649412,35.437 C375.606412,35.437 376.695412,36.196 376.695412,37.351 C376.497412,39.166 376.365412,40.915 376.365412,42.664 Z" id="Gif-n’Jam" stroke="none" fill="#FFFFFF" fill-rule="evenodd"></path>
</svg>